<svg width="156" height="52" viewBox="0 0 156 52" fill="none" xmlns="http://www.w3.org/2000/svg">
<path d="M26.4995 19.2483L24.7354 21.0124C22.1181 23.6297 20.3043 26.9385 19.505 30.5538L17.3226 40.4305L30.8892 26.864C34.4299 23.3232 36.8277 18.7969 37.7719 13.8772L40.4305 0L26.5534 2.65864C21.6336 3.60284 17.1114 6.00059 13.5665 9.54132L0 23.1079L9.87261 20.9296C13.4879 20.1304 16.8008 18.3165 19.4181 15.6993L21.1864 13.931C22.4743 12.6431 24.1225 11.7693 25.9115 11.4256L29.7421 10.6926L29.0091 14.5232C28.6612 16.3122 27.7874 17.9562 26.4995 19.2483Z" fill="#D0D0D0"/>
<path d="M42.7745 13.0366L40.3229 25.8412C39.9792 27.6302 39.1095 29.2784 37.8175 30.5664L36.0492 32.3346C33.432 34.9519 31.6181 38.2648 30.8189 41.8801L28.6406 51.7527L42.2072 38.1861C45.7479 34.6454 48.1457 30.1191 49.0899 25.1993L51.7485 11.3222L42.7745 13.0366Z" fill="#D0D0D0"/>
<path d="M7.34707 28.6448C5.24748 29.0465 3.60756 30.6906 3.20172 32.7902L2.14986 38.2856L7.64522 37.2337C9.74481 36.832 11.3847 35.1879 11.7906 33.0883L12.8424 27.593L7.34707 28.6448Z" fill="#D0D0D0"/>
<path d="M74.3038 17.5507C74.3038 20.23 72.2622 22.1515 69.5331 22.1515H60.9981V5.17677H68.9699C71.5043 5.17677 73.4714 6.9989 73.4714 9.50433C73.4714 11.1028 72.6349 12.5067 71.5043 13.1444C73.1484 13.7366 74.3038 15.5339 74.3038 17.5507ZM64.2904 8.22883V11.9683H68.1292C69.1397 11.9683 69.9762 11.1567 69.9762 10.0965C69.9762 9.04051 69.1894 8.22883 68.1292 8.22883H64.2904ZM70.8128 16.9585C70.8128 15.7782 69.9017 14.8423 68.6966 14.8423H64.2945V19.0995H68.6966C69.9017 19.0995 70.8128 18.1636 70.8128 16.9585Z" fill="#D0D0D0"/>
<path d="M88.2014 17.0328H78.4861C78.9292 18.6065 80.2586 19.6169 82.0766 19.6169C83.6005 19.6169 84.8553 18.9046 85.522 18.0681L87.6631 19.9358C86.3586 21.4846 84.3418 22.4454 81.9813 22.4454C77.9975 22.4454 75.02 19.5921 75.02 15.8277C75.02 12.1131 77.8981 9.30948 81.6873 9.30948C85.4517 9.30948 88.2801 12.1131 88.2801 15.9023C88.2759 16.246 88.2511 16.6891 88.2014 17.0328ZM78.4613 14.6972H84.8595C84.466 13.1235 83.2113 12.1131 81.6625 12.1131C80.0847 12.1131 78.8547 13.1484 78.4613 14.6972Z" fill="#D0D0D0"/>
<path d="M101.386 9.60359L95.1867 24.338C94.4993 26.0607 93.0208 27.1167 91.3726 27.1167C90.2421 27.1167 88.9128 26.6239 88.0763 25.8619L89.3062 23.3524C89.6996 23.7706 90.2918 24.015 90.8301 24.015C91.4182 24.015 91.9359 23.7458 92.2547 23.0293L92.7724 21.9485L87.6539 9.59944H91.294L94.5655 18.1344L97.8122 9.59944H101.386V9.60359Z" fill="#D0D0D0"/>
<path d="M100.82 15.8774C100.82 12.1379 103.723 9.30948 107.562 9.30948C111.401 9.30948 114.304 12.1379 114.304 15.8774C114.304 19.6169 111.401 22.4454 107.562 22.4454C103.723 22.4454 100.82 19.6169 100.82 15.8774ZM111.003 15.8774C111.003 13.9103 109.554 12.4071 107.558 12.4071C105.591 12.4071 104.112 13.9062 104.112 15.8774C104.112 17.8445 105.586 19.3477 107.558 19.3477C109.554 19.3477 111.003 17.8445 111.003 15.8774Z" fill="#D0D0D0"/>
<path d="M127.927 14.1796V22.1514H124.73V15.2149C124.73 13.517 123.649 12.4113 121.976 12.4113C120.228 12.4113 119.048 13.5419 119.048 15.2646V22.1514H115.851V9.60776H119.048V11.0116C120.034 9.90591 121.409 9.31373 123.032 9.31373C125.981 9.30959 127.927 11.227 127.927 14.1796Z" fill="#D0D0D0"/>
<path d="M142.736 4.43952V22.1514H139.539V20.6523C138.529 21.758 137.129 22.4496 135.456 22.4496C131.961 22.4496 129.331 19.6212 129.331 15.8817C129.331 12.1422 131.965 9.31372 135.456 9.31372C137.129 9.31372 138.529 10.0011 139.539 11.111V4.44367H142.736V4.43952ZM139.535 15.8775C139.535 13.9104 138.061 12.4072 136.065 12.4072C134.098 12.4072 132.619 13.9063 132.619 15.8775C132.619 17.8446 134.094 19.3478 136.065 19.3478C138.061 19.3478 139.535 17.8446 139.535 15.8775Z" fill="#D0D0D0"/>
<path d="M79.0738 25.6757V42.6505H75.678V30.9888L70.9818 39.5984H69.0645L64.389 30.9888V42.6505H60.9933V25.6757H65.2256L70.0459 34.5047L74.8911 25.6757H79.0738Z" fill="#D0D0D0"/>
<path d="M94.0072 37.5318H84.2919C84.735 39.1054 86.0643 40.1159 87.8823 40.1159C89.4063 40.1159 90.6611 39.4036 91.3278 38.5671L93.4688 40.4347C92.1643 41.9836 90.1476 42.9443 87.7871 42.9443C83.8032 42.9443 80.8257 40.091 80.8257 36.3267C80.8257 32.612 83.7039 29.8084 87.493 29.8084C91.2574 29.8084 94.0859 32.612 94.0859 36.4012C94.0817 36.7449 94.0569 37.188 94.0072 37.5318ZM84.2671 35.1961H90.6652C90.2718 33.6225 89.017 32.612 87.4682 32.612C85.8904 32.612 84.6605 33.6473 84.2671 35.1961Z" fill="#D0D0D0"/>
<path d="M108.21 30.4597V43.0034H105.013V41.5043C104.003 42.61 102.603 43.3016 100.93 43.3016C97.4346 43.3016 94.8049 40.4731 94.8049 36.7336C94.8049 32.9941 97.4388 30.1657 100.93 30.1657C102.603 30.1657 104.003 30.8531 105.013 31.963V30.4638H108.21V30.4597ZM105.013 36.7336C105.013 34.7665 103.539 33.2633 101.543 33.2633C99.5756 33.2633 98.0972 34.7624 98.0972 36.7336C98.0972 38.7007 99.5715 40.2039 101.543 40.2039C103.535 40.1998 105.013 38.7007 105.013 36.7336Z" fill="#D0D0D0"/>
<path d="M109.628 41.0271L111.177 38.911C112.138 39.7475 113.343 40.3148 114.842 40.3148C116.122 40.3148 117.057 39.8966 117.057 39.1346C117.057 38.2981 115.977 38.0041 114.598 37.6852C112.606 37.2421 110.022 36.6292 110.022 33.7759C110.022 31.1172 112.357 29.8169 115.14 29.8169C117.281 29.8169 118.88 30.5789 120.01 31.4651L118.461 33.6061C117.55 32.9186 116.494 32.4507 115.215 32.4507C114.134 32.4507 113.247 32.7944 113.247 33.5316C113.247 34.3681 114.304 34.6373 115.707 34.9354C117.699 35.3785 120.283 35.9914 120.283 38.8447C120.283 41.4992 117.923 42.9528 114.921 42.9528C112.577 42.9445 110.833 42.0583 109.628 41.0271Z" fill="#D0D0D0"/>
<path d="M121.484 37.6562V30.1026H124.681V37.2131C124.681 38.8116 125.737 39.8469 127.34 39.8469C128.938 39.8469 129.998 38.8116 129.998 37.2131V30.1026H133.195V37.6562C133.195 40.8532 130.86 42.9445 127.34 42.9445C123.795 42.9445 121.484 40.8532 121.484 37.6562Z" fill="#D0D0D0"/>
<path d="M142.662 33.2044H142.119C139.833 33.2044 138.504 34.5586 138.504 36.6996V42.6505H135.307V30.1068H138.504V31.726C139.415 30.5706 140.645 29.9039 142.119 29.9039H142.662V33.2044Z" fill="#D0D0D0"/>
<path d="M155.921 37.5318H146.206C146.649 39.1054 147.979 40.1159 149.796 40.1159C151.32 40.1159 152.575 39.4036 153.242 38.5671L155.383 40.4347C154.079 41.9836 152.062 42.9443 149.701 42.9443C145.717 42.9443 142.74 40.091 142.74 36.3267C142.74 32.612 145.618 29.8084 149.407 29.8084C153.172 29.8084 156 32.612 156 36.4012C155.992 36.7449 155.971 37.188 155.921 37.5318ZM146.177 35.1961H152.575C152.182 33.6225 150.927 32.612 149.378 32.612C147.8 32.612 146.57 33.6473 146.177 35.1961Z" fill="#D0D0D0"/>
</svg>
